<svg xmlns="http://www.w3.org/2000/svg" viewBox="0 0 64 64">
  <circle cx="32" cy="32" r="32" fill="#25D366"/>
  <path fill="#fff" d="M32 12c-10.5 0-19 8.2-19 18.3 0 3.2.9 6.3 2.6 9.1L13 52l12.9-2.4c1.9.7 4 .9 6.1.9 10.5 0 19-8.2 19-18.3S42.5 12 32 12zm0 35.1c-1.9 0-3.8-.3-5.5-1l-.7-.3-7.7 1.4 1.5-7.1-.4-.7c-1.6-2.6-2.4-5.7-2.4-8.8 0-8.3 7-15.1 15.6-15.1S47.6 22.3 47.6 30.6 40.6 47.1 32 47.1zm8.9-9.6c-.5-.2-2.8-1.3-3.2-1.5-.4-.2-.8-.2-1.1.2-.3.4-1.3 1.5-1.6 1.8-.3.3-.6.4-1.1.2-.5-.2-2.1-.7-4-2.3-1.5-1.2-2.5-2.7-2.8-3.2-.3-.4 0-.7.2-.9.2-.2.5-.5.7-.7.2-.2.3-.4.5-.7.2-.3.1-.6 0-.8-.1-.2-1.1-2.6-1.5-3.5-.4-.9-.8-.8-1.1-.8h-1c-.3 0-.8.1-1.2.6-.4.4-1.6 1.5-1.6 3.7 0 2.2 1.6 4.3 1.8 4.6.2.3 3.2 5 7.8 7 .9.4 1.6.6 2.1.8.9.3 1.7.2 2.3.1.7-.1 2.8-1.1 3.2-2.2.4-1.1.4-2 .3-2.2-.1-.2-.4-.3-.9-.5z"/>
</svg>

